<?xml version="1.0" encoding="utf-8"?>
<!-- Generator: Adobe Illustrator 27.3.1, SVG Export Plug-In . SVG Version: 6.00 Build 0)  -->
<svg version="1.1" id="Layer_1" xmlns="http://www.w3.org/2000/svg" xmlns:xlink="http://www.w3.org/1999/xlink" x="0px" y="0px"
	 viewBox="0 0 20 21" style="enable-background:new 0 0 20 21;" xml:space="preserve">
<style type="text/css">
	.st0{fill-rule:evenodd;clip-rule:evenodd;fill:#EBEBEB;}
</style>
<g>
	<path class="st0" d="M2.7,1.4l15.9,15.9c0.3,0.3,0.3,0.8,0,1.1l-0.4,0.3c-0.3,0.3-0.7,0.3-1,0L1.3,2.8C1,2.5,1,2,1.3,1.7l0.4-0.3
		C2,1.1,2.4,1.1,2.7,1.4z"/>
	<path class="st0" d="M1.3,17.3L17.3,1.4c0.3-0.3,0.8-0.3,1.1,0l0.3,0.3c0.3,0.3,0.3,0.8,0,1.1L2.7,18.7c-0.3,0.3-0.8,0.3-1.1,0
		l-0.3-0.3C1,18.1,1,17.6,1.3,17.3z"/>
</g>
</svg>
