<?xml version="1.0" encoding="utf-8"?>
<!-- Generator: Adobe Illustrator 27.3.1, SVG Export Plug-In . SVG Version: 6.00 Build 0)  -->
<svg version="1.1" id="Layer_1" xmlns="http://www.w3.org/2000/svg" xmlns:xlink="http://www.w3.org/1999/xlink" x="0px" y="0px"
	 viewBox="0 0 24 21" style="enable-background:new 0 0 24 21;" xml:space="preserve">
<style type="text/css">
	.st0{fill-rule:evenodd;clip-rule:evenodd;fill:#EBEBEB;}
</style>
<path class="st0" d="M5.3,2.5h13.4c0.3,0,0.6,0.2,0.6,0.5V4c0,0.3-0.3,0.5-0.6,0.5H5.3C5,4.5,4.7,4.3,4.7,4V3C4.7,2.7,5,2.5,5.3,2.5
	z M0.9,9.5h22.2c0.5,0,0.9,0.3,0.9,0.6v0.8c0,0.3-0.4,0.6-0.9,0.6H0.9c-0.5,0-0.9-0.3-0.9-0.6v-0.8C0,9.8,0.4,9.5,0.9,9.5z
	 M5.3,16.5h13.4c0.3,0,0.6,0.2,0.6,0.5V18c0,0.3-0.3,0.5-0.6,0.5H5.3c-0.3,0-0.6-0.2-0.6-0.5V17C4.7,16.7,5,16.5,5.3,16.5z"/>
</svg>
