<?xml version="1.0" encoding="utf-8"?>
<!-- Generator: Adobe Illustrator 27.3.1, SVG Export Plug-In . SVG Version: 6.00 Build 0)  -->
<svg version="1.1" id="Layer_1" xmlns="http://www.w3.org/2000/svg" xmlns:xlink="http://www.w3.org/1999/xlink" x="0px" y="0px"
	 viewBox="0 0 32 32" style="enable-background:new 0 0 32 32;" xml:space="preserve">
<style type="text/css">
	.st0{fill:#EBEBEB;}
	.st1{fill:url(#SVGID_1_);}
	.st2{display:none;}
	.st3{display:inline;fill:#EBEBEB;}
	.st4{display:inline;fill:#44ABE5;}
</style>
<g>
	<path class="st0" d="M21.5,8.4c1.5,1.3,2.3,3.1,2.3,5.5c0,1.1-0.2,2.4-0.5,3.6c-0.6,2.4-1.6,4.4-3,6.1s-2.9,2.9-4.8,3.8
		c-1.9,0.9-3.9,1.3-6.1,1.3c-2.7,0-4.8-0.6-6.3-1.9s-2.3-3.1-2.3-5.5c0-1.1,0.2-2.3,0.5-3.7c0.6-2.4,1.6-4.4,2.9-6
		c1.3-1.6,2.9-2.9,4.8-3.7s3.9-1.3,6.1-1.3C17.9,6.5,20,7.2,21.5,8.4z M12.9,10.4c-0.5,0.5-1,1.4-1.5,2.5s-1,2.8-1.6,4.9
		c-0.9,3-1.3,5.1-1.3,6.2c0,0.7,0.1,1.1,0.4,1.4s0.6,0.5,1.1,0.5c0.6,0,1.2-0.3,1.7-0.8s1-1.4,1.5-2.5s1-2.7,1.6-4.8
		c0.8-2.9,1.3-5,1.3-6.2c0-0.7-0.1-1.2-0.4-1.5c-0.2-0.3-0.6-0.4-1.1-0.4C14,9.6,13.4,9.9,12.9,10.4z"/>
</g>
<g>
	<linearGradient id="SVGID_1_" gradientUnits="userSpaceOnUse" x1="32.0759" y1="12.7146" x2="15.1615" y2="22.4801">
		<stop  offset="0" style="stop-color:#44ABE5"/>
		<stop  offset="1" style="stop-color:#B794F4"/>
	</linearGradient>
	<path class="st1" d="M31,11c0.2,0.2,0.3,0.4,0.3,0.7c0,0.1,0,0.2-0.1,0.4c-0.3,0.9-0.9,1.4-1.9,1.4h-1.9l-2.4,7.9
		c-0.1,0.3-0.2,0.6-0.2,1c0,0.4,0.1,0.6,0.3,0.8s0.5,0.2,0.9,0.2c0.3,0,0.8,0,1.3-0.1c0.3-0.1,0.5-0.1,0.7-0.1c0.1,0,0.3,0,0.3,0.1
		c0.1,0.1,0.1,0.2,0.1,0.4c0,0.4-0.3,0.9-0.9,1.5c-0.6,0.6-1.5,1.1-2.6,1.6c-1.1,0.4-2.3,0.7-3.7,0.7c-1.5,0-2.6-0.3-3.5-1
		c-0.9-0.7-1.3-1.6-1.3-2.7c0-0.5,0.1-1,0.3-1.5l2-6.3c0.1-0.4,0.2-0.6,0.2-0.9c0-0.4-0.1-0.8-0.3-1.1c-0.2-0.3-0.5-0.6-0.9-0.9
		c-0.3-0.3-0.5-0.6-0.7-0.8S17,11.8,17,11.6c0.1-0.3,0.3-0.5,0.5-0.6c0.3-0.1,0.7-0.2,1.3-0.2h1.8l2-2c0.7-0.7,1.4-1.2,1.9-1.5
		s1.4-0.4,2.3-0.4c1.3,0,2,0.5,2,1.5c0,0.3,0,0.6-0.1,0.9l-0.5,1.5h1.7C30.5,10.7,30.8,10.8,31,11z"/>
</g>
<g class="st2">
	<path class="st3" d="M70.1,5.9c1.5,1.3,2.3,3.1,2.3,5.5c0,1.1-0.2,2.4-0.5,3.6c-0.6,2.4-1.6,4.4-3,6.1c-1.3,1.7-2.9,2.9-4.8,3.8
		c-1.9,0.9-3.9,1.3-6.1,1.3c-2.7,0-4.8-0.6-6.3-1.9c-1.5-1.3-2.3-3.1-2.3-5.5c0-1.1,0.2-2.3,0.5-3.7c0.6-2.4,1.6-4.4,2.9-6
		c1.3-1.6,2.9-2.9,4.8-3.7c1.9-0.8,3.9-1.3,6.1-1.3C66.5,4,68.6,4.7,70.1,5.9z M61.5,7.9c-0.5,0.5-1,1.4-1.5,2.5s-1,2.8-1.6,4.9
		c-0.9,3-1.3,5.1-1.3,6.2c0,0.7,0.1,1.1,0.4,1.4s0.6,0.5,1.1,0.5c0.6,0,1.2-0.3,1.7-0.8c0.5-0.5,1-1.4,1.5-2.5
		c0.5-1.1,1-2.7,1.6-4.8c0.8-2.9,1.2-5,1.2-6.2c0-0.7-0.1-1.2-0.3-1.5s-0.6-0.4-1.1-0.4C62.6,7.2,62,7.4,61.5,7.9z"/>
</g>
<g class="st2">
	<path class="st4" d="M79.6,8.5C79.9,8.7,80,8.9,80,9.2c0,0.1,0,0.2-0.1,0.4c-0.3,0.9-0.9,1.4-1.9,1.4h-1.9L73.7,19
		c-0.1,0.3-0.2,0.6-0.2,1c0,0.4,0.1,0.6,0.3,0.8s0.5,0.2,0.9,0.2c0.3,0,0.8,0,1.3-0.1c0.3-0.1,0.5-0.1,0.7-0.1c0.2,0,0.3,0,0.3,0.1
		c0.1,0.1,0.1,0.2,0.1,0.4c0,0.4-0.3,0.9-0.9,1.5c-0.7,0.6-1.5,1.1-2.6,1.6c-1.1,0.4-2.3,0.7-3.7,0.7c-1.5,0-2.6-0.3-3.5-1
		c-0.9-0.7-1.3-1.6-1.3-2.7c0-0.5,0.1-1,0.3-1.5l2-6.3c0.1-0.4,0.2-0.6,0.2-0.9c0-0.4-0.1-0.8-0.3-1.1c-0.2-0.3-0.5-0.6-0.8-0.9
		c-0.3-0.3-0.5-0.6-0.7-0.8s-0.2-0.4-0.1-0.7c0.1-0.3,0.3-0.5,0.5-0.6c0.3-0.1,0.7-0.2,1.3-0.2h1.8l2-2c0.7-0.7,1.3-1.2,1.9-1.5
		c0.6-0.3,1.3-0.4,2.3-0.4c1.3,0,2,0.5,2,1.5c0,0.3,0,0.6-0.1,0.9L77,8.2h1.7C79.1,8.2,79.4,8.3,79.6,8.5z"/>
</g>
</svg>
